<?xml version="1.0" encoding="utf-8"?>
<!-- Generator: Adobe Illustrator 19.2.1, SVG Export Plug-In . SVG Version: 6.00 Build 0)  -->
<svg version="1.1" id="Layer_1" xmlns="http://www.w3.org/2000/svg" xmlns:xlink="http://www.w3.org/1999/xlink" x="0px" y="0px"
	 viewBox="0 0 200 100" style="enable-background:new 0 0 200 100;" xml:space="preserve">
<style type="text/css">
	.st0{fill:none;}
	.st1{fill:#72ACC1;}
	.st2{fill:#699FAF;}
	.st3{fill:#6CA3AF;}
	.st4{fill:#79B7C6;}
	.st5{fill:#588284;}
	.st6{fill:#6B9FA8;}
	.st7{fill:#FFFFFF;}
	.st8{fill:#5F8E93;}
	.st9{fill:#5D8F9B;}
	.st10{fill:#5C8B93;}
	.st11{fill:#030303;}
	.st12{fill:#88D0DC;}
	.st13{fill:#4E7678;}
	.st14{fill:#221914;}
	.st15{fill:#58848C;}
	.st16{fill:#070808;}
	.st17{fill:#212020;}
	.st18{fill:#DEDDDD;}
</style>
<path class="st0" d="M113.4,42.2c-1,4.2,1,8.6,3.2,12.3c1.6,2.9,3.5,5.7,6.1,7.7s6.2,3.1,9.3,2"/>
<path class="st1" d="M33.6,52c0.5-1.4,0.9-1.8,1.6-3.5c0.7-1.7,1.1-3.1,1.3-3.7c1.1-3.7,4-7.3,5.1-8.7c6.3-8.1,6.2-11.8,13.5-20.3
	c3.5-4.1,5.6-5.6,7.9-6.4c3.5-1.3,6.4-0.6,7.8-0.4c9.5,1.8,11.8-4.3,21.7-4c8.3,0.3,9.9,4.7,28.1,11.4c3.3,1.2,6.8,2.4,6.8,2.4
	c6.2,2.1,9.7,3.1,11.7,3.7c3.7,1.2,9,4.5,19.5,11.2c8.4,5.3,12.2,8,16.8,12c5.7,5.1,8,8.3,9.1,12.7c0.3,1.2,1.7,6.7-0.2,11.9
	c-0.6,1.5-1.3,2.7-3,4.7c-2.3,2.8-5.1,6-10,9.2c-3.3,2.1-8.6,5.5-15.6,5.9c-8.6,0.5-15.4-3.9-20.2-7c-7.5-4.9-8-8-14.4-10
	c-4.9-1.5-6.7-0.3-10.3-3.1c-3.4-2.7-5.1-6.3-8.1-5.9c-1.1,0.2-1.1,0.7-3.4,2c-2.8,1.6-5.8,3.2-8.5,1.7c-2-1.1-4-4-3.7-7
	c0.1-1.3,0.6-2.2,1-2.8c-1.2-1-3-2.4-5.4-3.7c-1.9-1.1-2.1-1-4.4-2.2c-3.1-1.7-3.9-2.5-7.1-4.4c-1.8-1.1-3.5-2-5.1-2.6
	c-6.8-2.6-13.3,1.2-14.1,1.7c-5.9,3.6-10.1,10.7-9.7,14.4c0.2,2.4,1.1,4.2,1.1,4.2c0.5,0.9,1,1.6,1.4,2c0.9,1.1,1.6,1.7,2,2
	c1.7,1.4,1.8,1.9,3.7,3.6c3.5,3.3,6.3,4.8,8.1,7.3c0.5,0.7,0.8,1.3,1.2,2.1c0.6,1.1,1.2,2.3,0.9,2.7c-0.1,0.1-0.3,0.3-1.1,0
	c-4.1-4.6-8-7.8-11-10c-2-1.4-5.8-4.2-10.7-6.1c-1-0.4-2.7-1-5.6-2.2c-4.9-2-4.3-2-5.1-2.2c-6-1.4-12.2,4.7-16,8.5
	C10.6,74,10,74.6,9.6,75c-0.1-0.4-0.3-1.1-0.2-1.8c0.1-0.8,0.5-1.4,0.7-1.6c2.6-3.7,2.5-4.5,4.5-6.4c1.1-1,1.9-1.6,3.1-2.5
	c2.2-1.5,4.4-3.1,7.5-4.1c3.8-1.2,7.2-0.9,7.6-2.7c0.1-0.3,0.1-1,0.4-2.4C33.3,53.1,33.4,52.6,33.6,52z"/>
<path class="st2" d="M121.6,73.7c-4.3-0.9-8.9-1-12.5-3.4c-2.7-1.7-5-4.6-8.2-5c-2.2-0.3-3.2,1.3-6.5,1.1c-1.4-0.1-2.7-0.4-3.9-1.3
	c-0.4-0.3-1.1-0.8-1.6-1.8c-0.5-0.9-0.4-1.8-0.5-2c-0.1-3-7.7-7.8-10.8-9.8c-5.4-3.4-8.1-5.1-9.3-5.5c-2.5-0.9-6.4-2.2-11.1-1.3
	c-8.5,1.8-12.5,9.7-13.4,11.4c-0.8,1.7-1.5,3-1.6,5c-0.3,5.6,4.2,9.9,5.6,11.3c3.8,3.6,6,3.1,9.1,6.9c1.9,2.2,2.8,4.5,3.4,6
	c-0.6-0.8-1.7-1.9-3.1-3.1c-2.8-2.3-5.5-3.3-6.6-3.8c-7.6-3-7.9-6.4-15.5-9.4c-2.7-1.1-6.1-3-10.3-2.4c-6.9,1.1-11,9.5-18,9.9
	c2.8-6.4,6.2-13.5,12.7-16.1c2.3-1,4.9-1.3,7.2-2.2c6.1-2.4,9.9-8.4,13.9-13.7c4-5.3,9.5-10.5,16.1-9.9c5.4,0.5,9.6,4.6,14.5,6.7
	c7.3,3,16.5,1.5,22.5,6.6c2.2,1.9,3.7,4.5,6,6.3c7.9,6.1,19.9-0.2,29.1,3.7c5.9,2.5,8.7,9.6,7.6,15.7
	C134.3,85.9,128.7,75.2,121.6,73.7z"/>
<path class="st3" d="M119.5,31c-0.6,3.8,2.8,8.1,6.3,10c4.4,2.4,7.8,0.5,12.5,4c1.5,1.1,1.6,1.6,3.2,2.5c3.1,1.8,5.2,1.4,8.5,2.2
	c2.9,0.7,4.8,1.7,8.5,3.8c2.4,1.4,4.7,3.2,9.1,6.7c1.1,0.9,2.3,1.9,3.3,3.5c0.5,0.8,1.5,2.4,1.6,4.8c0.1,2.6-0.9,4.5-1.4,5.4
	c-1.1,0.3-2.7,0.5-4.6,0.3c-2.6-0.4-3.7-1.5-6-2.8c-4.6-2.4-5.3-0.7-13.1-3.3c-2.4-0.8-5-1.9-5.4-1.3c-0.3,0.4,0.7,1.1,0.6,1.8
	c-0.1,1.4-5.2,2.4-18.6,2.8c1.7,2.5,5.5,7.7,10.3,10.9c1.6,1.1,4.6,2.8,6.6,3.9c2.2,1.2,3.1,1.6,3.5,1.8c0.9,0.4,3.5,1.4,6.8,1.9
	c1.9,0.3,7.2,1,13.1-1.3c2.3-0.9,4-2,7.3-4.1c2.5-1.7,4.2-2.8,6.2-4.6c1.9-1.8,4.6-4.4,6.2-8.7c1-2.5,1.2-4.6,1.3-5.4
	c0.1-1.2,0.3-5.3-1.8-9.9c-0.9-2-1.9-3.3-3.1-4.9c-1.4-1.8-3.9-4.6-9-8.5c-5-3.7-9.2-6-10.6-6.8c-17.4-9.2-26-13.8-33.2-11.5
	C126.7,24.2,120.3,26.4,119.5,31z"/>
<path class="st4" d="M65,13.4c4.5-0.9,9.1,1,13.6,0.3c2.4-0.4,4.6-1.5,7-2.2c7.4-2.1,15.2,0.6,22.2,3.6c3,1.3,6.2,2.9,7.8,5.8
	c2.3,4.4-0.2,9.9,1.5,14.6c1.5,4.3,6,6.7,10.3,8.1s9,2.2,12.6,5c1.6,1.2,2.9,2.7,4.4,3.9c5.4,4.1,13.5,4.5,17.5,10
	c0.8,1.1,1.3,2.4,1.1,3.7c-0.3,1.3-1.7,2.4-2.9,2c-0.8-0.3-1.1-0.8-1.7-1.5c-2.3-2.6-6.5-2.5-7.4-2.5c-2.6,0-2.8,1-5.1,0.7
	c-1.7-0.3-2.5-0.9-3.9-0.6c-1.2,0.3-2.1,1.2-2.6,1.9c-0.8-1.8-2.3-4.8-5.2-7.3c-1.7-1.5-4.1-3.3-9-4.4c-6.5-1.4-13.6,0.8-19.5-2.1
	c-4.5-2.2-7.2-6.9-11-10.2c-2.8-2.5-6.4-4.1-10-4.8c-2.7-0.5-5.6-0.5-8.3-1.3c-3.4-1-6.2-3.3-9.1-5.2c-2.9-1.9-6.3-3.5-9.8-3.1
	c-3.9,0.5-7,3.5-9.7,6.4c1.7-1.8,2.7-5.4,3.8-7.6c0.8-1.6,1.5-3.3,2.6-4.7C56.7,18.3,60.3,14.4,65,13.4z"/>
<path class="st5" d="M128.9,46.7c-1-0.1-2-0.6-2.6-1.4c-0.6-0.8-0.9-1.9-0.7-2.9c0.3-1.4,1.3-2.5,2.4-3.3c0.2-0.1,0.3-0.2,0.5-0.3
	c0.2-0.1,0.4-0.1,0.6,0c1.2,0,2.4,0.1,3.6,0.6c0.5,0.2,1,0.5,1.5,0.8c0.7,0.5,1.3,1,1.8,1.7c0.9,1.2,1.2,2.7,2,3.9
	c0.5,0.7,1.1,1.2,1.8,1.6c0.3,0.2,0.6,0.3,0.9,0.5s0.4,0.6,0.4,0.9c-0.1,0.4-0.5,0.6-0.9,0.6c-0.4,0-0.8-0.1-1.1-0.3
	c-0.6-0.2-1.2-0.5-1.7-0.8c-0.3-0.2-0.6-0.4-1-0.6c-0.5-0.2-1.1-0.3-1.6-0.5c-0.4-0.1-0.8-0.3-1.3-0.4c-0.3,0-0.6,0-0.9,0
	c-1.1,0-2.3,0.1-3.4,0.1"/>
<path class="st6" d="M127.9,37c-1.3,0.7-2.5,1.7-3.2,3c-0.7,1.3-0.9,2.8-0.9,4.3c0,1.1,0.1,2.3,0.5,3.3c1.1,2.9,3.9,3.5,6.6,3.4
	c1.9-0.1,3.8-0.5,5.6-0.1c1.6,0.4,3,1.3,4.3,2.3c0.7,0.6,1.7,1.2,2.7,1c1-0.3,1.7-1.5,1.9-2.5c0.2-1.3-1.3-2.6-2.1-3.4
	c-0.8-0.7-1.7-1.1-2.4-1.8c-0.5-0.6-0.9-1.3-1.2-2.1c-1-2.1-2.2-4.1-3.9-5.6c-1.7-1.6-4.1-3.1-6.5-2.2
	C128.8,36.6,128.3,36.8,127.9,37z"/>
<path class="st7" d="M129.4,38.7c3.1-0.7,6,2,7,3.9c0.5,1,0.5,1.7,0.5,2c0,0.7-0.3,1.4-0.8,1.9c-0.4,0.3-0.9,0.6-1.3,0.7
	c-1,0.4-2.1,0.6-3.2,0.6c-0.7,0-2-0.1-3.1-0.9c-2.1-1.6-2.7-5.3-1.1-7.2C128.1,39,129,38.8,129.4,38.7z"/>
<path class="st8" d="M129,37.6c-0.7,0-1.2,0.2-1.6,0.4c-0.5,0.2-0.7,0.3-1.1,0.5c-0.5,0.4-0.8,0.9-0.9,1.2c-0.3,0.6-0.6,1.3-0.5,2
	c-0.1-0.2-0.1-0.5-0.1-0.9c0-1.1,0.7-2.1,1.5-2.6c0.3-0.2,0.7-0.4,0.9-0.4c0.5-0.2,0.9-0.3,1-0.3c0.2,0,0.4-0.1,0.9-0.1
	c1-0.1,1.3,0,1.6,0c0.1,0,0.5,0,0.5,0.2c0,0.1-0.5,0-0.6,0C130.3,37.6,129.5,37.6,129,37.6z"/>
<path class="st9" d="M89.4,52.2c0.8,0.8,1.3,1.8,1.9,2.7c1.5,2,3.9,3.2,6.4,3.8c2.5,0.6,5,0.6,7.5,0.4c3.5-0.2,6.9-0.6,10.4-0.5
	c3.5,0.1,7,0.8,9.9,2.7c4,2.5,6.4,6.9,8.4,11.2c-1.3-1.5-2.5-3-3.8-4.5c-1.1-1.3-2.2-2.6-3.6-3.7c-3.1-2.6-7.2-3.7-11.2-4.1
	c-4-0.3-8,0.1-12.1,0.3c-2.4,0.1-4.8,0.2-7.1-0.3c-2.3-0.5-4.6-1.6-6-3.5c-0.6-0.8-1-1.8-1.6-2.6c-0.4-0.7-1.6-1.7-1.9-2.4
	C86,49.5,88.7,51.4,89.4,52.2z"/>
<path class="st9" d="M89,56.6c0.3,0.5,0.9,1,2,1.9c0.7,0.6,2.6,2.3,5.2,2.9c2.2,0.5,4.4,0.5,6.6,0.3c3-0.2,6.1-0.5,9.1-0.4
	c3,0.1,6.1,0.7,8.7,2.2c3.5,2.1,5.6,5.8,7.3,9.4c-1.1-1.3-2.2-2.5-3.3-3.8c-1-1.1-2-2.2-3.1-3.1c-2.7-2.2-6.3-3.1-9.8-3.4
	c-3.5-0.3-7,0.1-10.6,0.3c-2.7,0.2-5.6,0.1-8.1-1.1c-2.4-1.1-4-3.2-5.6-5.2c-0.5-0.6-0.9-1.3-0.7-1.6c0.2-0.2,0.6-0.2,0.9-0.1
	C88.4,55.2,88.6,55.9,89,56.6z"/>
<path class="st9" d="M142.3,84.1c6.6,4,15.5,3.7,21.8-0.8c-3,0.5-6,0.7-9,1c-2.3,0.2-4.7,0.4-7.1,0c-3.4-0.6-6.3-2.4-9-4.5
	c-1.4-1.1-5.5-6.3-7.3-5.6C134.4,77.8,138.6,81.8,142.3,84.1z"/>
<path class="st10" d="M144.3,80.7c6.6,3.2,15.5,2.9,21.8-0.6c-3,0.4-6,0.6-9,0.8c-2.3,0.2-4.7,0.3-7.1,0c-3.4-0.5-6.3-1.9-9-3.6
	c-1.4-0.9-5.5-4.9-7.3-4.4C136.4,75.7,140.6,78.9,144.3,80.7z"/>
<path class="st7" d="M168.9,81.4c-8.8-3-17.4-7.8-25.5-14.1c3.1,4.2,6.8,7.2,10.5,10.1c1.4,1.1,2.8,2.2,4.2,3.2
	c1.8,1.3,3.7,2.4,5.6,3.5c1.2,0.7,2.3,1.3,3.5,2c1.2,0.7,2.5,1.5,3.8,1.6c0.2,0,0.4,0,0.6,0c0.6-0.1,1.1-0.6,1.6-1
	c0.6-0.6,3.9-4.1,1.7-4.1C172.9,82.6,170.9,82.1,168.9,81.4z"/>
<path class="st11" d="M133.6,44.9c0.8-0.2,1.5,0.5,1.7,1c0.1,0.3,0.1,0.4,0.1,0.5c0,0.2-0.1,0.4-0.2,0.5c-0.1,0.1-0.2,0.1-0.3,0.2
	c-0.3,0.1-0.5,0.2-0.8,0.2c-0.2,0-0.5,0-0.8-0.2c-0.5-0.4-0.7-1.4-0.3-1.9C133.3,45,133.5,44.9,133.6,44.9z"/>
<path class="st9" d="M132.4,37.6c2.4,1.3,4.8,3.1,5.4,5.8c0.2,0.8,0.2,1.6,0.3,2.4c0.4,2.1,1.8,3.8,3.4,5.1c1.3,1.1,2.7,2,4.2,2.8
	c-1.2-1-2.5-2.1-3.7-3.1c-0.8-0.6-1.6-1.3-2.1-2.2c-1.4-2.1-1.1-5.1-2.5-7.2c-0.8-1.3-2.1-2.1-3.4-2.9"/>
<path class="st9" d="M125.2,47.5c0.5,0.9,1.4,1.5,2.4,1.7c1,0.3,2,0.3,3,0.3c1.1,0,2.1,0,3.2,0c1.6,0,3.3,0.1,4.6,0.9
	c0.4,0.3,0.8,0.6,1.3,0.9c0.9,0.7,1.9,1.3,2.9,1.7c-1.3-1.2-2.7-2.4-4.3-3.1c-3-1.3-6.5-0.6-9.8-1c-0.6-0.1-1.2-0.2-1.7-0.5
	c-1.3-0.7-1.6-2.2-2-3.5C124.5,45.7,124.8,46.9,125.2,47.5z"/>
<path class="st9" d="M133.4,36.6c2.4,1.3,4.8,3.1,5.4,5.8c0.2,0.8,0.2,1.6,0.3,2.4c0.4,2.1,1.8,3.8,3.4,5.1c1.3,1.1,2.7,2,4.2,2.8
	c-1.2-1-2.5-2.1-3.7-3.1c-0.8-0.6-1.6-1.3-2.1-2.2c-1.4-2.1-1.1-5.1-2.5-7.2c-0.8-1.3-2.1-2.1-3.4-2.9"/>
<path class="st9" d="M124.2,48.5c0.5,0.9,1.4,1.5,2.4,1.7c1,0.3,2,0.3,3,0.3c1.1,0,2.1,0,3.2,0c1.6,0,3.3,0.1,4.6,0.9
	c0.4,0.3,0.8,0.6,1.3,0.9c0.9,0.7,1.9,1.3,2.9,1.7c-1.3-1.2-2.7-2.4-4.3-3.1c-3-1.3-6.5-0.6-9.8-1c-0.6-0.1-1.2-0.2-1.7-0.5
	c-1.3-0.7-1.6-2.2-2-3.5C123.5,46.7,123.8,47.9,124.2,48.5z"/>
<path class="st9" d="M134.4,48.5c0.4,0,0.8,0,1.2,0.1c1.1,0.2,2.1,0.8,3.1,1.4c-0.2-0.7-1-1.2-1.7-1.4c-0.7-0.3-4.6-1.5-4.7-0.3
	C133,48.5,133.8,48.4,134.4,48.5z"/>
<path class="st9" d="M136.2,34.8c1.5,1,3,2,4,3.6c1.6,2.7,1.2,6.3,2.9,8.9c0.6,1,1.5,1.9,2.4,2.7c1.4,1.3,2.8,2.6,4.3,3.8
	c-1.7-1-3.4-2.1-4.9-3.5c-1.9-1.7-3.5-3.8-4-6.4c-0.2-1-0.2-2-0.4-3c-0.7-3.3-3.5-5.6-6.3-7.2"/>
<path class="st9" d="M120.3,48.6c0.6,1.3,1.9,2.1,3.1,2.5c1.3,0.4,2.6,0.4,3.9,0.4c1.4,0,2.8,0,4.2,0.1c2.1,0,4.2,0.1,6,1.3
	c0.6,0.4,1.1,0.9,1.6,1.4c1.2,1,2.4,1.8,3.8,2.4c-1.7-1.7-3.5-3.5-5.6-4.5c-3.9-1.8-8.4-0.9-12.6-1.5c-0.8-0.1-1.5-0.3-2.2-0.7
	c-1.7-1.1-2-3.2-2.6-5.1C119.4,46,119.9,47.7,120.3,48.6z"/>
<path class="st12" d="M69.1,26.9c1.5,1.2,3.5,1.6,5.4,1.7c5.6,0.3,4.8-7.1,0.7-8.8C71.1,18,64.4,23,69.1,26.9z"/>
<path class="st12" d="M85.6,21c1,0.8,2.4,1,3.7,1c3.8,0.2,3.3-4.4,0.5-5.4C87,15.5,82.4,18.6,85.6,21z"/>
<path class="st9" d="M28.8,61.5c3.7-1,6.5-4.1,8.7-7.3c4-6,3.5-6.3,6.7-9.4c1.1-1,7-6.4,14.6-5.9c1.2,0.1,2.9,0.6,6.2,1.7
	c0,0,6.2,2,12.4,5.7c0.7,0.4,1.6,1,2.7,1.9c0.3,0.2,1.1,1,2.4,2.6c2,2.5,1.5,2.8,3.4,5.3c1.1,1.5,1.7,2,1.9,3.3
	c0.2,1.3-0.3,2.5-0.4,2.5c-0.1,0,0.1-1.2-0.4-2.6c-0.4-1-1-1.6-1.7-2.1c-3.5-3-4.4-3.5-4.4-3.5c-6.4-4-13.4-10-21.4-9.7
	c-1.7,0.1-5,0.3-8.1,2.4c-2.8,1.9-4.7,4.8-5.8,6.4c-0.8,1.2-1.5,2.5-1.5,2.5c-0.5,0.9-0.9,1.6-1.3,2.6c-0.4,1.2-0.9,2.2-0.9,3.7
	c-0.1,1.5,0.3,2.7,0.5,3.5c0.2,0.7,0.5,1.6,1.2,2.6c0.2,0.3,0.6,0.8,1.5,1.8c0.9,1,1.3,1.5,1.4,1.6c1.3,1.4,2.9,2.9,5.1,4.5
	c3,2.3,3.4,2.1,4.9,3.6c2,2,3,4.2,3.6,5.8c-1.5-1.8-3-3-4.1-3.7c-3.9-2.7-6.1-2.3-10.2-5.3c-5.1-3.8-9.6-7.4-15.9-8.9
	c-4.1-1-7.8-0.1-11.2,2.4c-0.8,0.6-1.1,0.9-1.9,1.6c-0.5,0.5-1,0.8-1.9,1.6c-0.9,0.7-4.3,3.2-4.9,2.7c-0.6-0.6,2.6-5.8,7.3-9.3
	c1.6-1.2,3-1.9,3.8-2.2C23,62.9,24.9,62.5,28.8,61.5z"/>
<path class="st9" d="M147.1,38.9c-0.3,0.8-0.1,1.6,0.1,2.4c0.7,2.3,3.7,0.8,3.8-1.1C151.1,38.3,148,36.4,147.1,38.9z"/>
<path class="st13" d="M136.5,75c1.6,1.4,3.3,2.5,5.1,3.5c1.6,1,3.3,1.9,5.1,2.5c1.6,0.5,3.2,0.8,4.8,1c2.1,0.3,4.3,0.7,6.4,0.1
	c0.4-0.1,0.8-0.3,0.9-0.7c-2.7,0.4-5.4,0.4-8,0c-0.8-0.1-1.6-0.3-2.4-0.5c-1.1-0.2-2.1-0.5-3.1-0.9c-1.3-0.5-2.5-1.3-3.6-2.1"/>
<path class="st9" d="M155.9,43.9c-0.8,0.1-1.5,0.7-2,1.3c-1.6,1.7,1.3,3.6,2.9,2.7C158.5,47,158.5,43.4,155.9,43.9z"/>
<path class="st9" d="M155.8,37.7c-0.3,0.5-0.2,1-0.1,1.4c0.4,1.3,2.6,0.2,2.8-0.9C158.7,37.1,156.6,36.2,155.8,37.7z"/>
<path class="st8" d="M127.2,35.7c-0.7-0.1-1.2,0.1-1.6,0.2c-0.5,0.1-0.8,0.2-1.1,0.4c-0.6,0.3-0.9,0.7-1.1,1.1
	c-0.4,0.6-0.8,1.2-0.8,1.9c0-0.2-0.1-0.5,0-0.9c0.2-1.1,1-2,1.8-2.4c0.4-0.2,0.8-0.3,1-0.3c0.5-0.1,0.9-0.2,1-0.2c0.2,0,0.5,0,0.9,0
	c1,0.1,1.3,0.2,1.5,0.2c0.1,0,0.5,0.1,0.4,0.3c-0.1,0.1-0.5-0.1-0.6-0.1C128.5,36,127.7,35.8,127.2,35.7z"/>
<path class="st14" d="M130,33.9"/>
<path class="st15" d="M160.5,40.6c-0.2,0.3-0.1,0.6,0,0.9c0.2,0.8,1.6,0.1,1.7-0.5C162.3,40.3,161,39.7,160.5,40.6z"/>
<path class="st9" d="M185,85.2"/>
<path class="st16" d="M149,67.8c1.6-1,2.9-2.4,4.2-3.7c1.2-1.3,2.3-2.3,3.8-2.9c0.4-0.1,1.1-0.4,2-0.5c0.8-0.1,1.8-0.2,2.7,0.2
	c1.1,0.4,1.6,1.4,2.2,2.4c0.5,0.9,1.3,2.6,1.5,4.9c0.2-0.1,0.5-0.4,0.9-0.7c0.5-0.5,0.8-0.9,0.9-1c1.2-1.4,2.9-2.2,4.7-2.3
	c1.4,0,2.8,0.4,3.7,1.4c1.5,1.7,1.1,4.3,0.2,6.3c-1.1,2.5-1.6,3.4-2.8,6.1c-0.7,1.6-1.6,4-2.1,7.3c0-1-0.3-2.6-1.1-4.3
	c-1.1-2.1-2.2-2.8-3.3-4.6c-1-1.6-1.9-3.6-0.9-5.2c-2.7,2.3-6.7,2.4-10.3,2c-3.6-0.3-7.4-0.8-10.6,0.8c-1.3,0.7-2.4,1.6-3.4,2.7
	c-1.2,1.3-2.3,2.7-3,4.3c0.2-0.5-0.1-1.8,0-2.4c0.1-0.9,0.3-1.7,0.5-2.6c0.5-1.6,1.3-3.2,2.4-4.5C143.4,69,146.1,69.6,149,67.8z"/>
<path class="st12" d="M85.2,27.6c0.6,0.5,1.5,0.7,2.4,0.7c2.4,0.1,2.1-3,0.3-3.8C86.1,23.8,83.1,25.9,85.2,27.6z"/>
<path class="st13" d="M92.2,58.2c2.3,2,5.7,2.1,8.7,2c4.3-0.1,8.6-0.1,12.9-0.2c-3.3-0.5-6.7-0.7-10.1-0.6c-3,0.1-6.3,0.4-8.9-1.1
	c-1.2-0.6-2.2-1.5-3.1-2.5c-0.7-0.7-1.5-2.1-2.5-2.1C89.8,55.3,91,57.1,92.2,58.2z"/>
<path class="st13" d="M133.4,75.7c1.9,1.9,3.7,3.7,5.6,5.6c1,1,2.1,2.1,3.4,2.8c1.3,0.7,2.7,1,4.1,1.3c2.5,0.5,4.9,1.1,7.5,1.1
	c2.5,0,5.1-0.5,7.2-1.9c-1-0.1-2,0.1-2.9,0.3c-8,1.7-16.8-1.1-22.3-7.1"/>
<path class="st13" d="M88.5,57.5c1.4,1.7,3,3.3,4.9,4.2c2,0.9,4.3,1.1,6.5,1c2.2-0.1,4.4-0.5,6.6-0.6c1.8-0.1,3.5,0,5.3,0
	c-3.2-0.3-6.5-0.3-9.8,0c-0.8,0.1-1.6,0.2-2.4,0.2c-3.6,0.2-7.3-1.2-10-3.6"/>
<path class="st9" d="M110.3,69.4c1.6,1.4,3.7,1.9,5.8,2.1c2.1,0.2,4.2,0.2,6.2,0.7c2,0.5,4.1,1.5,5.1,3.3c-0.4-1.6-1.8-2.9-3.3-3.5
	c-1.5-0.6-3.2-0.8-4.9-0.9c-1.7-0.1-3.3-0.2-4.9-0.7c-1.5-0.5-2.9-1.5-4.2-2.4c-0.9-0.6-2-1.6-3.1-1.7
	C108.2,67.3,109.1,68.4,110.3,69.4z"/>
<path class="st0" d="M113.8,68.6c0.4,0.3,0.8,0.6,1.3,0.9c1.2,0.6,2.7,0.5,4,0.6c1.7,0.1,3.4,0.6,4.9,1.3c-2.2-1.6-4.7-2.7-7.2-3.7
	c-1.3-0.5-2.6-0.9-3.9-1.3c-0.8-0.3-2-0.9-2.8-0.6C110.8,66.8,112.7,67.8,113.8,68.6z"/>
<path class="st17" d="M143.8,74.2c0.5-0.4,1.1-0.6,2.3-1.1c2-0.8,2.7-0.8,3.8-1.3c2-0.8,2.1-1.2,4.5-3.7c1.4-1.4,3.2-2.7,5.1-2.5
	c1.9,0.2,3.4,1.7,4.7,3.2c0.5,0.6,1,1.2,1.1,1.9c0.8-1,2.2-1.6,3.4-2c0.5-0.2,1.1-0.4,1.6-0.4c0.8,0.1,1.5,0.7,1.9,1.4
	c0.4,0.7,0.5,1.6,0.5,2.4c0.1,4.8-1.8,9.6-1.2,14.4c-0.3-2.6-2-4.7-3.6-6.8c-1.6-2-3.1-4.4-3-7c-3.2,1.9-7,1.7-10.7,1.5
	c-3.7-0.1-7.6-0.1-10.6,2c-1.8,1.3-2.9,2.9-2.9,2.9c-0.9,1.3-1.2,2.6-1.3,2.6c-0.1,0,0.3-1.4,1-3.1C141.4,77,142.2,75.3,143.8,74.2z
	"/>
<path class="st18" d="M216.8,33.3"/>
<polygon class="st16" points="139.5,44.4 142.8,42.5 128.1,34.1 109.3,29.6 126.5,35.7 "/>
</svg>
